<svg viewBox="0 0 1600 372" xmlns="http://www.w3.org/2000/svg" role="img" aria-label="Current focus: Full Stack, AI Automation, Backend, Open Source.">
<defs><linearGradient id="scan" x1="0" y1="0" x2="1" y2="0"><stop offset="0" stop-color="#FFFFFF" stop-opacity="0"/><stop offset="0.5" stop-color="#FFFFFF" stop-opacity="0.9"/><stop offset="1" stop-color="#FFFFFF" stop-opacity="0"/></linearGradient></defs>
<text x="30" y="34" font-family="'JetBrains Mono','Cascadia Code',Consolas,monospace" font-size="17" letter-spacing="3" fill="#525252">~/focus <tspan fill="#3A3A3A">—</tspan> ./what-i-do.sh</text>
<circle cx="1462" cy="29" r="4.5" fill="#FFFFFF"><animate attributeName="opacity" values="1;0.2;1" dur="2s" repeatCount="indefinite"/></circle>
<text x="1478" y="34" font-family="'JetBrains Mono','Cascadia Code',Consolas,monospace" font-size="15" letter-spacing="2.5" fill="#6E6E6E">4 ACTIVE</text>
<g>
<rect x="30" y="62" width="372" height="290" rx="12" fill="#131313" stroke="#262626" stroke-width="1.5"/>
<text x="378" y="326" text-anchor="end" font-family="'Segoe UI','Helvetica Neue',Arial,sans-serif" font-size="150" font-weight="800" fill="#171717">01</text>
<rect x="58" y="62" width="46" height="3" fill="#FFFFFF"/>
<text x="58" y="120" font-family="'JetBrains Mono','Cascadia Code',Consolas,monospace" font-size="22" letter-spacing="3" fill="#4A4A4A">01</text>
<g stroke="#8A8A8A" stroke-width="2.2" fill="none" stroke-linecap="round" stroke-linejoin="round"><path d="M310 108 330 98 350 108 330 118 Z"/><path d="M310 120 330 130 350 120"/><path d="M310 132 330 142 350 132"/></g><path d="M310 108 330 98 350 108 330 118 Z" fill="#FFFFFF" opacity="0.0"><animate attributeName="opacity" values="0;0.14;0" dur="3s" repeatCount="indefinite"/></path>
<text x="58" y="202" font-family="'Segoe UI','Helvetica Neue',Arial,sans-serif" font-size="27" font-weight="700" letter-spacing="2.5" fill="#F2F2F2">FULL STACK</text>
<line x1="58" y1="220" x2="58" y2="220" stroke="#FFFFFF" stroke-width="2"><animate attributeName="x2" from="58" to="148" dur="1.1s" begin="0.00s" fill="freeze" calcMode="spline" keySplines="0.25 0.1 0.25 1"/></line>
<text x="58" y="260" font-family="'Segoe UI','Helvetica Neue',Arial,sans-serif" font-size="17" fill="#7C7C7C">End-to-end products —</text>
<text x="58" y="284" font-family="'Segoe UI','Helvetica Neue',Arial,sans-serif" font-size="17" fill="#7C7C7C">interface to infrastructure.</text>
<circle cx="63" cy="318" r="4" fill="#FFFFFF"><animate attributeName="opacity" values="1;0.2;1" dur="1.8s" repeatCount="indefinite"/></circle>
<text x="76" y="322" font-family="'JetBrains Mono','Cascadia Code',Consolas,monospace" font-size="12.5" letter-spacing="2.5" fill="#7A7A7A">BUILDING</text>
</g>
<g>
<rect x="423" y="62" width="372" height="290" rx="12" fill="#131313" stroke="#262626" stroke-width="1.5"/>
<text x="771" y="326" text-anchor="end" font-family="'Segoe UI','Helvetica Neue',Arial,sans-serif" font-size="150" font-weight="800" fill="#171717">02</text>
<rect x="451" y="62" width="46" height="3" fill="#FFFFFF"/>
<text x="451" y="120" font-family="'JetBrains Mono','Cascadia Code',Consolas,monospace" font-size="22" letter-spacing="3" fill="#4A4A4A">02</text>
<g stroke="#8A8A8A" stroke-width="2.2" fill="none" stroke-linecap="round" stroke-linejoin="round"><circle cx="707" cy="100" r="5"/><circle cx="707" cy="124" r="5"/><circle cx="739" cy="112" r="6"/><path d="M712 102 733 110"/><path d="M712 122 733 114"/></g><circle cx="739" cy="112" r="2.6" fill="#FFFFFF"><animate attributeName="opacity" values="1;0.2;1" dur="2s" repeatCount="indefinite"/></circle>
<text x="451" y="202" font-family="'Segoe UI','Helvetica Neue',Arial,sans-serif" font-size="27" font-weight="700" letter-spacing="2.5" fill="#F2F2F2">AI AUTOMATION</text>
<line x1="451" y1="220" x2="451" y2="220" stroke="#FFFFFF" stroke-width="2"><animate attributeName="x2" from="451" to="541" dur="1.1s" begin="0.25s" fill="freeze" calcMode="spline" keySplines="0.25 0.1 0.25 1"/></line>
<text x="451" y="260" font-family="'Segoe UI','Helvetica Neue',Arial,sans-serif" font-size="17" fill="#7C7C7C">Agents, pipelines and</text>
<text x="451" y="284" font-family="'Segoe UI','Helvetica Neue',Arial,sans-serif" font-size="17" fill="#7C7C7C">workflow tooling.</text>
<circle cx="456" cy="318" r="4" fill="#FFFFFF"><animate attributeName="opacity" values="1;0.2;1" dur="2.1s" repeatCount="indefinite"/></circle>
<text x="469" y="322" font-family="'JetBrains Mono','Cascadia Code',Consolas,monospace" font-size="12.5" letter-spacing="2.5" fill="#7A7A7A">ORCHESTRATING</text>
</g>
<g>
<rect x="816" y="62" width="372" height="290" rx="12" fill="#131313" stroke="#262626" stroke-width="1.5"/>
<text x="1164" y="326" text-anchor="end" font-family="'Segoe UI','Helvetica Neue',Arial,sans-serif" font-size="150" font-weight="800" fill="#171717">03</text>
<rect x="844" y="62" width="46" height="3" fill="#FFFFFF"/>
<text x="844" y="120" font-family="'JetBrains Mono','Cascadia Code',Consolas,monospace" font-size="22" letter-spacing="3" fill="#4A4A4A">03</text>
<g stroke="#8A8A8A" stroke-width="2.2" fill="none" stroke-linecap="round" stroke-linejoin="round"><rect x="1096" y="94" width="40" height="16" rx="3"/><rect x="1096" y="116" width="40" height="16" rx="3"/></g><circle cx="1105" cy="102" r="2.2" fill="#8A8A8A"/><circle cx="1105" cy="124" r="2.2" fill="#FFFFFF"><animate attributeName="opacity" values="1;0.15;1" dur="1.6s" repeatCount="indefinite"/></circle>
<text x="844" y="202" font-family="'Segoe UI','Helvetica Neue',Arial,sans-serif" font-size="27" font-weight="700" letter-spacing="2.5" fill="#F2F2F2">BACKEND</text>
<line x1="844" y1="220" x2="844" y2="220" stroke="#FFFFFF" stroke-width="2"><animate attributeName="x2" from="844" to="934" dur="1.1s" begin="0.50s" fill="freeze" calcMode="spline" keySplines="0.25 0.1 0.25 1"/></line>
<text x="844" y="260" font-family="'Segoe UI','Helvetica Neue',Arial,sans-serif" font-size="17" fill="#7C7C7C">APIs, data models and</text>
<text x="844" y="284" font-family="'Segoe UI','Helvetica Neue',Arial,sans-serif" font-size="17" fill="#7C7C7C">system design.</text>
<circle cx="849" cy="318" r="4" fill="#FFFFFF"><animate attributeName="opacity" values="1;0.2;1" dur="2.4s" repeatCount="indefinite"/></circle>
<text x="862" y="322" font-family="'JetBrains Mono','Cascadia Code',Consolas,monospace" font-size="12.5" letter-spacing="2.5" fill="#7A7A7A">SCALING</text>
</g>
<g>
<rect x="1209" y="62" width="372" height="290" rx="12" fill="#131313" stroke="#262626" stroke-width="1.5"/>
<text x="1557" y="326" text-anchor="end" font-family="'Segoe UI','Helvetica Neue',Arial,sans-serif" font-size="150" font-weight="800" fill="#171717">04</text>
<rect x="1237" y="62" width="46" height="3" fill="#FFFFFF"/>
<text x="1237" y="120" font-family="'JetBrains Mono','Cascadia Code',Consolas,monospace" font-size="22" letter-spacing="3" fill="#4A4A4A">04</text>
<g stroke="#8A8A8A" stroke-width="2.2" fill="none" stroke-linecap="round" stroke-linejoin="round"><circle cx="1493" cy="96" r="5.5"/><circle cx="1525" cy="96" r="5.5"/><circle cx="1509" cy="130" r="5.5"/><path d="M1493 102v4q0 8 8 8h16q8 0 8-8v-4"/><path d="M1509 116v8"/></g><circle cx="1509" cy="130" r="2.4" fill="#FFFFFF"><animate attributeName="opacity" values="1;0.25;1" dur="2.6s" repeatCount="indefinite"/></circle>
<text x="1237" y="202" font-family="'Segoe UI','Helvetica Neue',Arial,sans-serif" font-size="27" font-weight="700" letter-spacing="2.5" fill="#F2F2F2">OPEN SOURCE</text>
<line x1="1237" y1="220" x2="1237" y2="220" stroke="#FFFFFF" stroke-width="2"><animate attributeName="x2" from="1237" to="1327" dur="1.1s" begin="0.75s" fill="freeze" calcMode="spline" keySplines="0.25 0.1 0.25 1"/></line>
<text x="1237" y="260" font-family="'Segoe UI','Helvetica Neue',Arial,sans-serif" font-size="17" fill="#7C7C7C">Contributing, maintaining</text>
<text x="1237" y="284" font-family="'Segoe UI','Helvetica Neue',Arial,sans-serif" font-size="17" fill="#7C7C7C">and giving back.</text>
<circle cx="1242" cy="318" r="4" fill="#FFFFFF"><animate attributeName="opacity" values="1;0.2;1" dur="2.7s" repeatCount="indefinite"/></circle>
<text x="1255" y="322" font-family="'JetBrains Mono','Cascadia Code',Consolas,monospace" font-size="12.5" letter-spacing="2.5" fill="#7A7A7A">CONTRIBUTING</text>
</g>
<rect x="0" y="62" width="70" height="290" fill="url(#scan)" opacity="0.05"><animateTransform attributeName="transform" type="translate" values="20 0;1520 0;20 0" dur="9s" repeatCount="indefinite" calcMode="spline" keyTimes="0;0.5;1" keySplines="0.4 0 0.6 1;0.4 0 0.6 1"/></rect>
</svg>