<svg viewBox="0 0 820 300" xmlns="http://www.w3.org/2000/svg" role="img" aria-label="004 BEYOND-SILENCE. An early-stage project, quietly in progress.">
<rect x="3" y="3" width="814" height="294" rx="16" fill="#131313" stroke="#262626" stroke-width="1.6"/>
<text x="128" y="292" font-family="'Segoe UI','Helvetica Neue',Arial,sans-serif" font-size="170" font-weight="800" fill="#161616">004</text>
<rect x="40" y="3" width="54" height="3" fill="#FFFFFF"/>
<circle cx="48" cy="36" r="4" fill="#FFFFFF"><animate attributeName="opacity" values="1;0.25;1" dur="2.4s" repeatCount="indefinite"/></circle>
<text x="62" y="41" font-family="'JetBrains Mono','Cascadia Code',Consolas,monospace" font-size="14.5" letter-spacing="0.5" fill="#6E6E6E">alpharabbit9<tspan fill="#4A4A4A"> / </tspan><tspan fill="#8A8A8A">Beyond-Silence</tspan></text>
<line x1="40" y1="56" x2="778" y2="56" stroke="#1E1E1E" stroke-width="1.5"/>
<rect x="40" y="74" width="74" height="74" rx="14" fill="#0F0F0F" stroke="#262626" stroke-width="1.4"/>
<g transform="translate(77.0 111.0)"><g transform="rotate(0)"><animateTransform attributeName="transform" type="rotate" values="-5;5;-5" dur="3.4s" repeatCount="indefinite"/><g fill="#0F0F0F" stroke="#DADADA" stroke-width="2" stroke-linejoin="round" stroke-linecap="round"><path d="M-10 2 Q-10 -3 -6 -3 L7 -3 Q11 -3 11 2 L11 12 Q11 17 6 17 L-5 17 Q-10 17 -10 12 Z"/><rect x="-9" y="-19" width="5.4" height="18" rx="2.7"/><rect x="4.5" y="-14" width="5" height="13" rx="2.5"/><rect x="-19" y="-3" width="10" height="5.2" rx="2.6" transform="rotate(-32 -14 0)"/><path d="M-2.5 -3 q2.6 -3 5 0 M2.6 -3 q2.4 -2.6 4.6 0" fill="none"/></g></g></g>
<rect x="40" y="74" width="74" height="74" rx="14" fill="none" stroke="#3A3A3A" stroke-width="1"/>
<text x="132" y="106" font-family="'Segoe UI','Helvetica Neue',Arial,sans-serif" font-size="25" font-weight="800" letter-spacing="1.2" fill="#F2F2F2">BEYOND-SILENCE<tspan dx="4" font-weight="600" fill="#FFFFFF">_<animate attributeName="opacity" values="1;1;0;0" dur="1.1s" keyTimes="0;0.5;0.5;1" repeatCount="indefinite"/></tspan></text>
<text x="132" y="140" font-family="'Segoe UI','Helvetica Neue',Arial,sans-serif" font-size="15" fill="#7C7C7C">An early-stage project — quietly in progress,</text>
<text x="132" y="163" font-family="'Segoe UI','Helvetica Neue',Arial,sans-serif" font-size="15" fill="#7C7C7C">groundwork laid before the first real build.</text>
<rect x="132" y="188" width="114" height="30" rx="15" fill="none" stroke="#262626" stroke-width="1.4"/><text x="189.0" y="207.7" text-anchor="middle" font-family="'JetBrains Mono','Cascadia Code',Consolas,monospace" font-size="13" letter-spacing="1.5" fill="#9A9A9A">EARLY STAGE</text>
<text x="132" y="262" font-family="'JetBrains Mono','Cascadia Code',Consolas,monospace" font-size="12.5" letter-spacing="1" fill="#565656">★ 0  ↻ UPDATED FEB 2026</text>
<line x1="500" y1="74" x2="500" y2="262" stroke="#1E1E1E" stroke-width="1.5"/>
<text x="522" y="90" font-family="'JetBrains Mono','Cascadia Code',Consolas,monospace" font-size="10.5" letter-spacing="2.5" fill="#4A4A4A">LANGUAGES</text>
<text x="522" y="120" font-family="'JetBrains Mono','Cascadia Code',Consolas,monospace" font-size="13" fill="#6E6E6E">no language</text>
<text x="522" y="140" font-family="'JetBrains Mono','Cascadia Code',Consolas,monospace" font-size="13" fill="#6E6E6E">data yet</text>

  <circle cx="748" cy="150" r="42" fill="none" stroke="#2C2C2C" stroke-width="6"
          stroke-dasharray="4 8" stroke-linecap="round">
    <animateTransform attributeName="transform" type="rotate"
                      from="0 748 150" to="360 748 150" dur="9s" repeatCount="indefinite"/>
  </circle>
  <text x="748" y="155" text-anchor="middle" font-family="'JetBrains Mono','Cascadia Code',Consolas,monospace"
        font-size="13" letter-spacing="2" fill="#6E6E6E">WIP</text>
<text x="700" y="270" text-anchor="end" font-family="'JetBrains Mono','Cascadia Code',Consolas,monospace" font-size="11" letter-spacing="2" fill="#6E6E6E">VIEW REPO</text><g stroke="#6E6E6E" stroke-width="1.8" fill="none" stroke-linecap="round" stroke-linejoin="round"><path d="M712 266 h20 m-6 -5 6 5 -6 5"><animateTransform attributeName="transform" type="translate" values="0 0;5 0;0 0" dur="2.2s" repeatCount="indefinite"/></path></g>
</svg>